<svg fill="none" height="32" viewBox="0 0 32 32" width="32" xmlns="http://www.w3.org/2000/svg"><path d="m0 16c0 8.8366 7.16344 16 16 16 8.8366 0 16-7.1634 16-16 0-8.83656-7.1634-16-16-16-8.83656 0-16 7.16344-16 16z" fill="#f00073"/><g fill="#fff"><path d="m16 9.20001h3.4c.8 0 1.2.2 1.5.3.4.2.7.3 1 .59999.3.3.5.6.6 1 .1.3.2.7.3 1.5v3.4 3.4c0 .8-.2 1.2-.3 1.5-.2.4-.3.7-.6 1s-.6.5-1 .6c-.3.1-.7.2-1.5.3-.9 0-1.1 0-3.4 0s-2.5 0-3.4 0c-.8 0-1.2-.2-1.5-.3-.4-.2-.7-.3-1-.6s-.5-.6-.6-1c-.1-.3-.2-.7-.3-1.5 0-.9 0-1.1 0-3.4s0-2.5 0-3.4c0-.8.2-1.2.3-1.5.2-.4.3-.7.6-1 .3-.29999.6-.49999 1-.59999.3-.1.7-.2 1.5-.3zm0-1.5c-2.3 0-2.5 0-3.4 0s-1.5.2-2 .4-1 .5-1.5 1-.7.89999-1 1.49999c-.2.5-.3 1.1-.4 2v3.4 3.4c0 .9.2 1.5.4 2s.5 1 1 1.5.9.7 1.5 1c.5.2 1.1.3 2 .4h3.4 3.4c.9 0 1.5-.2 2-.4s1-.5 1.5-1 .7-.9 1-1.5c.2-.5.3-1.1.4-2 0-.9 0-1.2 0-3.4s0-2.5 0-3.4-.2-1.5-.4-2-.5-.99999-1-1.49999-.9-.7-1.5-1c-.5-.2-1.1-.3-2-.4-.9 0-1.1 0-3.4 0z"/><path d="m16 11.7c-2.4 0-4.3 1.9-4.3 4.3s1.9 4.3 4.3 4.3 4.3-1.9 4.3-4.3-1.9-4.3-4.3-4.3zm0 7.1c-1.5 0-2.8-1.2-2.8-2.8 0-1.5 1.2-2.8 2.8-2.8 1.5 0 2.8 1.2 2.8 2.8 0 1.5-1.3 2.8-2.8 2.8z"/><path d="m20.4 12.6c.5523 0 1-.4477 1-1s-.4477-1-1-1-1 .4477-1 1 .4477 1 1 1z"/></g></svg>